<mxfile host="app.diagrams.net" modified="2023-03-09T08:00:23.416Z" agent="5.0 (Windows)" etag="IQMmw1SPw95G0YLyz223" version="21.0.4" type="github">
  <diagram id="C5RBs43oDa-KdzZeNtuy" name="Page-1">
    <mxGraphModel dx="666" dy="566" grid="1" gridSize="10" guides="1" tooltips="1" connect="1" arrows="1" fold="1" page="1" pageScale="1" pageWidth="1654" pageHeight="2336" math="0" shadow="0">
      <root>
        <mxCell id="WIyWlLk6GJQsqaUBKTNV-0" />
        <mxCell id="WIyWlLk6GJQsqaUBKTNV-1" parent="WIyWlLk6GJQsqaUBKTNV-0" />
        <mxCell id="opSj3FVJMWo2EWqM532I-79" value="1&lt;br&gt;Data&lt;br&gt;&amp;nbsp;Admin" style="ellipse;whiteSpace=wrap;html=1;aspect=fixed;" parent="WIyWlLk6GJQsqaUBKTNV-1" vertex="1">
          <mxGeometry x="1030" y="570" width="80" height="80" as="geometry" />
        </mxCell>
        <mxCell id="opSj3FVJMWo2EWqM532I-80" value="" style="endArrow=classic;html=1;rounded=0;exitX=1;exitY=0.5;exitDx=0;exitDy=0;" parent="WIyWlLk6GJQsqaUBKTNV-1" source="opSj3FVJMWo2EWqM532I-79" edge="1">
          <mxGeometry width="50" height="50" relative="1" as="geometry">
            <mxPoint x="1090" y="810" as="sourcePoint" />
            <mxPoint x="1270" y="610" as="targetPoint" />
          </mxGeometry>
        </mxCell>
        <mxCell id="opSj3FVJMWo2EWqM532I-81" value="Data Admin" style="edgeLabel;html=1;align=center;verticalAlign=middle;resizable=0;points=[];" parent="opSj3FVJMWo2EWqM532I-80" vertex="1" connectable="0">
          <mxGeometry x="-0.2051" y="-1" relative="1" as="geometry">
            <mxPoint x="17" y="-1" as="offset" />
          </mxGeometry>
        </mxCell>
        <mxCell id="opSj3FVJMWo2EWqM532I-82" value="" style="endArrow=none;html=1;rounded=0;" parent="WIyWlLk6GJQsqaUBKTNV-1" edge="1">
          <mxGeometry width="50" height="50" relative="1" as="geometry">
            <mxPoint x="1280" y="590" as="sourcePoint" />
            <mxPoint x="1360" y="590" as="targetPoint" />
          </mxGeometry>
        </mxCell>
        <mxCell id="opSj3FVJMWo2EWqM532I-83" value="" style="endArrow=none;html=1;rounded=0;" parent="WIyWlLk6GJQsqaUBKTNV-1" edge="1">
          <mxGeometry width="50" height="50" relative="1" as="geometry">
            <mxPoint x="1280" y="630" as="sourcePoint" />
            <mxPoint x="1360" y="630" as="targetPoint" />
          </mxGeometry>
        </mxCell>
        <mxCell id="opSj3FVJMWo2EWqM532I-84" value="Data Admin" style="edgeLabel;html=1;align=center;verticalAlign=middle;resizable=0;points=[];" parent="opSj3FVJMWo2EWqM532I-83" vertex="1" connectable="0">
          <mxGeometry x="0.3792" y="1" relative="1" as="geometry">
            <mxPoint x="-15" y="-19" as="offset" />
          </mxGeometry>
        </mxCell>
        <mxCell id="opSj3FVJMWo2EWqM532I-85" value="" style="endArrow=classic;html=1;rounded=1;entryX=1;entryY=0.5;entryDx=0;entryDy=0;" parent="WIyWlLk6GJQsqaUBKTNV-1" target="opSj3FVJMWo2EWqM532I-87" edge="1">
          <mxGeometry width="50" height="50" relative="1" as="geometry">
            <mxPoint x="1320" y="630" as="sourcePoint" />
            <mxPoint x="1110" y="760" as="targetPoint" />
            <Array as="points">
              <mxPoint x="1320" y="760" />
            </Array>
          </mxGeometry>
        </mxCell>
        <mxCell id="opSj3FVJMWo2EWqM532I-86" value="Melakukan" style="edgeLabel;html=1;align=center;verticalAlign=middle;resizable=0;points=[];" parent="opSj3FVJMWo2EWqM532I-85" vertex="1" connectable="0">
          <mxGeometry x="0.2787" y="-2" relative="1" as="geometry">
            <mxPoint x="-23" y="2" as="offset" />
          </mxGeometry>
        </mxCell>
        <mxCell id="opSj3FVJMWo2EWqM532I-87" value="2&lt;br&gt;Login" style="ellipse;whiteSpace=wrap;html=1;aspect=fixed;" parent="WIyWlLk6GJQsqaUBKTNV-1" vertex="1">
          <mxGeometry x="1030" y="720" width="80" height="80" as="geometry" />
        </mxCell>
        <mxCell id="opSj3FVJMWo2EWqM532I-88" value="" style="endArrow=classic;html=1;rounded=1;exitX=0;exitY=0;exitDx=0;exitDy=0;entryX=0.893;entryY=1.047;entryDx=0;entryDy=0;entryPerimeter=0;" parent="WIyWlLk6GJQsqaUBKTNV-1" source="opSj3FVJMWo2EWqM532I-87" target="opSj3FVJMWo2EWqM532I-91" edge="1">
          <mxGeometry width="50" height="50" relative="1" as="geometry">
            <mxPoint x="1020" y="810" as="sourcePoint" />
            <mxPoint x="880" y="680" as="targetPoint" />
            <Array as="points">
              <mxPoint x="910" y="730" />
            </Array>
          </mxGeometry>
        </mxCell>
        <mxCell id="opSj3FVJMWo2EWqM532I-89" value="Login Admin sukses" style="edgeLabel;html=1;align=center;verticalAlign=middle;resizable=0;points=[];" parent="opSj3FVJMWo2EWqM532I-88" vertex="1" connectable="0">
          <mxGeometry x="-0.4835" y="1" relative="1" as="geometry">
            <mxPoint x="-19" y="-1" as="offset" />
          </mxGeometry>
        </mxCell>
        <mxCell id="opSj3FVJMWo2EWqM532I-91" value="Admin" style="rounded=1;whiteSpace=wrap;html=1;" parent="WIyWlLk6GJQsqaUBKTNV-1" vertex="1">
          <mxGeometry x="830" y="630" width="90" height="50" as="geometry" />
        </mxCell>
        <mxCell id="opSj3FVJMWo2EWqM532I-92" value="" style="endArrow=classic;html=1;rounded=1;exitX=0;exitY=1;exitDx=0;exitDy=0;entryX=1;entryY=0.5;entryDx=0;entryDy=0;" parent="WIyWlLk6GJQsqaUBKTNV-1" source="opSj3FVJMWo2EWqM532I-87" target="opSj3FVJMWo2EWqM532I-102" edge="1">
          <mxGeometry width="50" height="50" relative="1" as="geometry">
            <mxPoint x="1030" y="779" as="sourcePoint" />
            <mxPoint x="840" y="920" as="targetPoint" />
            <Array as="points">
              <mxPoint x="900" y="788" />
              <mxPoint x="900" y="925" />
            </Array>
          </mxGeometry>
        </mxCell>
        <mxCell id="opSj3FVJMWo2EWqM532I-93" value="Login Karyawan sukses" style="edgeLabel;html=1;align=center;verticalAlign=middle;resizable=0;points=[];" parent="opSj3FVJMWo2EWqM532I-92" vertex="1" connectable="0">
          <mxGeometry x="-0.4835" y="1" relative="1" as="geometry">
            <mxPoint x="8" y="-1" as="offset" />
          </mxGeometry>
        </mxCell>
        <mxCell id="opSj3FVJMWo2EWqM532I-94" style="edgeStyle=orthogonalEdgeStyle;rounded=1;orthogonalLoop=1;jettySize=auto;html=1;entryX=0;entryY=0.5;entryDx=0;entryDy=0;" parent="WIyWlLk6GJQsqaUBKTNV-1" source="opSj3FVJMWo2EWqM532I-102" target="opSj3FVJMWo2EWqM532I-119" edge="1">
          <mxGeometry relative="1" as="geometry">
            <Array as="points">
              <mxPoint x="945" y="940" />
              <mxPoint x="945" y="1010" />
            </Array>
          </mxGeometry>
        </mxCell>
        <mxCell id="opSj3FVJMWo2EWqM532I-95" value="Input Data&amp;nbsp;&lt;br&gt;Laundry" style="edgeLabel;html=1;align=center;verticalAlign=middle;resizable=0;points=[];" parent="opSj3FVJMWo2EWqM532I-94" vertex="1" connectable="0">
          <mxGeometry x="-0.731" y="-1" relative="1" as="geometry">
            <mxPoint x="18" as="offset" />
          </mxGeometry>
        </mxCell>
        <mxCell id="opSj3FVJMWo2EWqM532I-96" style="edgeStyle=orthogonalEdgeStyle;rounded=1;orthogonalLoop=1;jettySize=auto;html=1;" parent="WIyWlLk6GJQsqaUBKTNV-1" edge="1">
          <mxGeometry relative="1" as="geometry">
            <mxPoint x="800" y="950" as="targetPoint" />
            <mxPoint x="1301" y="1030" as="sourcePoint" />
            <Array as="points">
              <mxPoint x="1301" y="1110" />
              <mxPoint x="800" y="1110" />
              <mxPoint x="800" y="952" />
            </Array>
          </mxGeometry>
        </mxCell>
        <mxCell id="opSj3FVJMWo2EWqM532I-97" value="Ambil Data Transaksi Laundry Masuk" style="edgeLabel;html=1;align=center;verticalAlign=middle;resizable=0;points=[];" parent="opSj3FVJMWo2EWqM532I-96" vertex="1" connectable="0">
          <mxGeometry x="0.0518" y="1" relative="1" as="geometry">
            <mxPoint x="-17" as="offset" />
          </mxGeometry>
        </mxCell>
        <mxCell id="opSj3FVJMWo2EWqM532I-98" style="edgeStyle=orthogonalEdgeStyle;rounded=1;orthogonalLoop=1;jettySize=auto;html=1;entryX=0.03;entryY=0.305;entryDx=0;entryDy=0;entryPerimeter=0;" parent="WIyWlLk6GJQsqaUBKTNV-1" source="opSj3FVJMWo2EWqM532I-102" target="opSj3FVJMWo2EWqM532I-136" edge="1">
          <mxGeometry relative="1" as="geometry">
            <Array as="points">
              <mxPoint x="810" y="1154" />
              <mxPoint x="990" y="1154" />
            </Array>
          </mxGeometry>
        </mxCell>
        <mxCell id="opSj3FVJMWo2EWqM532I-99" value="Mengubah Status Pesanan" style="edgeLabel;html=1;align=center;verticalAlign=middle;resizable=0;points=[];" parent="opSj3FVJMWo2EWqM532I-98" vertex="1" connectable="0">
          <mxGeometry x="0.4212" y="1" relative="1" as="geometry">
            <mxPoint x="18" y="1" as="offset" />
          </mxGeometry>
        </mxCell>
        <mxCell id="opSj3FVJMWo2EWqM532I-100" style="edgeStyle=orthogonalEdgeStyle;rounded=1;orthogonalLoop=1;jettySize=auto;html=1;entryX=0.037;entryY=0.282;entryDx=0;entryDy=0;entryPerimeter=0;" parent="WIyWlLk6GJQsqaUBKTNV-1" source="opSj3FVJMWo2EWqM532I-102" target="opSj3FVJMWo2EWqM532I-143" edge="1">
          <mxGeometry relative="1" as="geometry">
            <Array as="points">
              <mxPoint x="780" y="1220" />
              <mxPoint x="1033" y="1220" />
            </Array>
          </mxGeometry>
        </mxCell>
        <mxCell id="opSj3FVJMWo2EWqM532I-101" value="Input Data Pengambilan Laundry" style="edgeLabel;html=1;align=center;verticalAlign=middle;resizable=0;points=[];" parent="opSj3FVJMWo2EWqM532I-100" vertex="1" connectable="0">
          <mxGeometry x="0.3791" y="1" relative="1" as="geometry">
            <mxPoint x="10" as="offset" />
          </mxGeometry>
        </mxCell>
        <mxCell id="opSj3FVJMWo2EWqM532I-102" value="Karyawan" style="rounded=1;whiteSpace=wrap;html=1;" parent="WIyWlLk6GJQsqaUBKTNV-1" vertex="1">
          <mxGeometry x="770" y="900" width="90" height="50" as="geometry" />
        </mxCell>
        <mxCell id="opSj3FVJMWo2EWqM532I-103" value="" style="endArrow=classic;html=1;rounded=1;exitX=0.5;exitY=1;exitDx=0;exitDy=0;entryX=-0.01;entryY=0.638;entryDx=0;entryDy=0;entryPerimeter=0;" parent="WIyWlLk6GJQsqaUBKTNV-1" source="opSj3FVJMWo2EWqM532I-91" target="opSj3FVJMWo2EWqM532I-109" edge="1">
          <mxGeometry width="50" height="50" relative="1" as="geometry">
            <mxPoint x="880" y="850" as="sourcePoint" />
            <mxPoint x="1020" y="880" as="targetPoint" />
            <Array as="points">
              <mxPoint x="875" y="890" />
            </Array>
          </mxGeometry>
        </mxCell>
        <mxCell id="opSj3FVJMWo2EWqM532I-104" value="Input Data Karyawan" style="edgeLabel;html=1;align=center;verticalAlign=middle;resizable=0;points=[];" parent="opSj3FVJMWo2EWqM532I-103" vertex="1" connectable="0">
          <mxGeometry x="0.5165" y="-2" relative="1" as="geometry">
            <mxPoint x="16" y="-2" as="offset" />
          </mxGeometry>
        </mxCell>
        <mxCell id="opSj3FVJMWo2EWqM532I-105" style="edgeStyle=orthogonalEdgeStyle;rounded=1;orthogonalLoop=1;jettySize=auto;html=1;entryX=0.25;entryY=1;entryDx=0;entryDy=0;exitX=0.029;exitY=0.271;exitDx=0;exitDy=0;exitPerimeter=0;" parent="WIyWlLk6GJQsqaUBKTNV-1" source="opSj3FVJMWo2EWqM532I-109" target="opSj3FVJMWo2EWqM532I-91" edge="1">
          <mxGeometry relative="1" as="geometry" />
        </mxCell>
        <mxCell id="opSj3FVJMWo2EWqM532I-106" value="Detail Data Karyawan" style="edgeLabel;html=1;align=center;verticalAlign=middle;resizable=0;points=[];" parent="opSj3FVJMWo2EWqM532I-105" vertex="1" connectable="0">
          <mxGeometry x="-0.5757" relative="1" as="geometry">
            <mxPoint x="4" as="offset" />
          </mxGeometry>
        </mxCell>
        <mxCell id="opSj3FVJMWo2EWqM532I-107" style="edgeStyle=orthogonalEdgeStyle;rounded=1;orthogonalLoop=1;jettySize=auto;html=1;endArrow=none;endFill=0;entryX=0.916;entryY=0.786;entryDx=0;entryDy=0;entryPerimeter=0;" parent="WIyWlLk6GJQsqaUBKTNV-1" target="opSj3FVJMWo2EWqM532I-150" edge="1">
          <mxGeometry relative="1" as="geometry">
            <mxPoint x="1110" y="1415" as="targetPoint" />
            <mxPoint x="1330" y="875" as="sourcePoint" />
            <Array as="points">
              <mxPoint x="1490" y="875" />
              <mxPoint x="1490" y="1415" />
              <mxPoint x="1103" y="1415" />
            </Array>
          </mxGeometry>
        </mxCell>
        <mxCell id="opSj3FVJMWo2EWqM532I-108" value="Data Karyawan" style="edgeLabel;html=1;align=center;verticalAlign=middle;resizable=0;points=[];" parent="opSj3FVJMWo2EWqM532I-107" vertex="1" connectable="0">
          <mxGeometry x="0.7804" relative="1" as="geometry">
            <mxPoint as="offset" />
          </mxGeometry>
        </mxCell>
        <mxCell id="opSj3FVJMWo2EWqM532I-109" value="3&lt;br&gt;Data&lt;br&gt;&amp;nbsp;Karyawan" style="ellipse;whiteSpace=wrap;html=1;aspect=fixed;" parent="WIyWlLk6GJQsqaUBKTNV-1" vertex="1">
          <mxGeometry x="1030" y="840" width="80" height="80" as="geometry" />
        </mxCell>
        <mxCell id="opSj3FVJMWo2EWqM532I-110" value="" style="endArrow=classic;html=1;rounded=0;exitX=1;exitY=0.5;exitDx=0;exitDy=0;" parent="WIyWlLk6GJQsqaUBKTNV-1" source="opSj3FVJMWo2EWqM532I-109" edge="1">
          <mxGeometry width="50" height="50" relative="1" as="geometry">
            <mxPoint x="1120" y="880" as="sourcePoint" />
            <mxPoint x="1230" y="880" as="targetPoint" />
          </mxGeometry>
        </mxCell>
        <mxCell id="opSj3FVJMWo2EWqM532I-111" value="Data Karyawan" style="edgeLabel;html=1;align=center;verticalAlign=middle;resizable=0;points=[];" parent="opSj3FVJMWo2EWqM532I-110" vertex="1" connectable="0">
          <mxGeometry x="-0.148" y="-3" relative="1" as="geometry">
            <mxPoint x="5" y="-3" as="offset" />
          </mxGeometry>
        </mxCell>
        <mxCell id="opSj3FVJMWo2EWqM532I-112" value="" style="endArrow=none;html=1;rounded=0;" parent="WIyWlLk6GJQsqaUBKTNV-1" edge="1">
          <mxGeometry width="50" height="50" relative="1" as="geometry">
            <mxPoint x="1230" y="860.31" as="sourcePoint" />
            <mxPoint x="1320" y="860" as="targetPoint" />
          </mxGeometry>
        </mxCell>
        <mxCell id="opSj3FVJMWo2EWqM532I-113" value="" style="endArrow=none;html=1;rounded=0;" parent="WIyWlLk6GJQsqaUBKTNV-1" edge="1">
          <mxGeometry width="50" height="50" relative="1" as="geometry">
            <mxPoint x="1230" y="899.31" as="sourcePoint" />
            <mxPoint x="1320" y="900" as="targetPoint" />
          </mxGeometry>
        </mxCell>
        <mxCell id="opSj3FVJMWo2EWqM532I-114" value="Data Karyawan" style="edgeLabel;html=1;align=center;verticalAlign=middle;resizable=0;points=[];" parent="opSj3FVJMWo2EWqM532I-113" vertex="1" connectable="0">
          <mxGeometry x="0.3792" y="1" relative="1" as="geometry">
            <mxPoint x="-15" y="-19" as="offset" />
          </mxGeometry>
        </mxCell>
        <mxCell id="opSj3FVJMWo2EWqM532I-115" style="edgeStyle=orthogonalEdgeStyle;rounded=0;orthogonalLoop=1;jettySize=auto;html=1;" parent="WIyWlLk6GJQsqaUBKTNV-1" source="opSj3FVJMWo2EWqM532I-119" edge="1">
          <mxGeometry relative="1" as="geometry">
            <mxPoint x="840" y="950" as="targetPoint" />
            <Array as="points">
              <mxPoint x="840" y="1020" />
            </Array>
          </mxGeometry>
        </mxCell>
        <mxCell id="opSj3FVJMWo2EWqM532I-116" value="Detail Transaksi laundry" style="edgeLabel;html=1;align=center;verticalAlign=middle;resizable=0;points=[];" parent="opSj3FVJMWo2EWqM532I-115" vertex="1" connectable="0">
          <mxGeometry x="0.2945" relative="1" as="geometry">
            <mxPoint x="40" as="offset" />
          </mxGeometry>
        </mxCell>
        <mxCell id="opSj3FVJMWo2EWqM532I-117" style="edgeStyle=orthogonalEdgeStyle;rounded=1;orthogonalLoop=1;jettySize=auto;html=1;entryX=0;entryY=0.75;entryDx=0;entryDy=0;" parent="WIyWlLk6GJQsqaUBKTNV-1" source="opSj3FVJMWo2EWqM532I-119" target="opSj3FVJMWo2EWqM532I-91" edge="1">
          <mxGeometry relative="1" as="geometry">
            <Array as="points">
              <mxPoint x="1070" y="1070" />
              <mxPoint x="730" y="1070" />
              <mxPoint x="730" y="668" />
              <mxPoint x="790" y="668" />
            </Array>
          </mxGeometry>
        </mxCell>
        <mxCell id="opSj3FVJMWo2EWqM532I-118" value="Informasi Data Laundry masuk" style="edgeLabel;html=1;align=center;verticalAlign=middle;resizable=0;points=[];" parent="opSj3FVJMWo2EWqM532I-117" vertex="1" connectable="0">
          <mxGeometry x="-0.6221" y="2" relative="1" as="geometry">
            <mxPoint x="16" y="-2" as="offset" />
          </mxGeometry>
        </mxCell>
        <mxCell id="opSj3FVJMWo2EWqM532I-119" value="4&lt;br&gt;Transaksi Masuk" style="ellipse;whiteSpace=wrap;html=1;aspect=fixed;" parent="WIyWlLk6GJQsqaUBKTNV-1" vertex="1">
          <mxGeometry x="1030" y="970" width="80" height="80" as="geometry" />
        </mxCell>
        <mxCell id="opSj3FVJMWo2EWqM532I-120" value="" style="endArrow=classic;html=1;rounded=0;exitX=1;exitY=0.5;exitDx=0;exitDy=0;" parent="WIyWlLk6GJQsqaUBKTNV-1" source="opSj3FVJMWo2EWqM532I-119" edge="1">
          <mxGeometry width="50" height="50" relative="1" as="geometry">
            <mxPoint x="1110" y="1009.6599999999999" as="sourcePoint" />
            <mxPoint x="1260" y="1010" as="targetPoint" />
          </mxGeometry>
        </mxCell>
        <mxCell id="opSj3FVJMWo2EWqM532I-121" value="Data Transaksi Laundry" style="edgeLabel;html=1;align=center;verticalAlign=middle;resizable=0;points=[];" parent="opSj3FVJMWo2EWqM532I-120" vertex="1" connectable="0">
          <mxGeometry x="-0.148" y="-3" relative="1" as="geometry">
            <mxPoint x="5" y="-3" as="offset" />
          </mxGeometry>
        </mxCell>
        <mxCell id="opSj3FVJMWo2EWqM532I-122" value="" style="endArrow=none;html=1;rounded=0;" parent="WIyWlLk6GJQsqaUBKTNV-1" edge="1">
          <mxGeometry width="50" height="50" relative="1" as="geometry">
            <mxPoint x="1260" y="990.31" as="sourcePoint" />
            <mxPoint x="1350" y="990" as="targetPoint" />
          </mxGeometry>
        </mxCell>
        <mxCell id="opSj3FVJMWo2EWqM532I-123" value="" style="endArrow=none;html=1;rounded=0;" parent="WIyWlLk6GJQsqaUBKTNV-1" edge="1">
          <mxGeometry width="50" height="50" relative="1" as="geometry">
            <mxPoint x="1260" y="1029.31" as="sourcePoint" />
            <mxPoint x="1350" y="1030" as="targetPoint" />
          </mxGeometry>
        </mxCell>
        <mxCell id="opSj3FVJMWo2EWqM532I-124" value="Data Transaksi&amp;nbsp;&lt;br&gt;Laundry" style="edgeLabel;html=1;align=center;verticalAlign=middle;resizable=0;points=[];" parent="opSj3FVJMWo2EWqM532I-123" vertex="1" connectable="0">
          <mxGeometry x="0.3792" y="1" relative="1" as="geometry">
            <mxPoint x="-15" y="-19" as="offset" />
          </mxGeometry>
        </mxCell>
        <mxCell id="opSj3FVJMWo2EWqM532I-125" value="" style="endArrow=classic;html=1;rounded=0;entryX=0;entryY=0.5;entryDx=0;entryDy=0;" parent="WIyWlLk6GJQsqaUBKTNV-1" target="opSj3FVJMWo2EWqM532I-129" edge="1">
          <mxGeometry width="50" height="50" relative="1" as="geometry">
            <mxPoint x="1280" y="990" as="sourcePoint" />
            <mxPoint x="1380" y="940" as="targetPoint" />
            <Array as="points">
              <mxPoint x="1280" y="945" />
            </Array>
          </mxGeometry>
        </mxCell>
        <mxCell id="opSj3FVJMWo2EWqM532I-126" value="Data Konsumen&lt;br&gt;Laundry" style="edgeLabel;html=1;align=center;verticalAlign=middle;resizable=0;points=[];" parent="opSj3FVJMWo2EWqM532I-125" vertex="1" connectable="0">
          <mxGeometry x="0.1871" relative="1" as="geometry">
            <mxPoint x="5" as="offset" />
          </mxGeometry>
        </mxCell>
        <mxCell id="opSj3FVJMWo2EWqM532I-127" style="edgeStyle=orthogonalEdgeStyle;rounded=0;orthogonalLoop=1;jettySize=auto;html=1;" parent="WIyWlLk6GJQsqaUBKTNV-1" source="opSj3FVJMWo2EWqM532I-129" edge="1">
          <mxGeometry relative="1" as="geometry">
            <mxPoint x="1350" y="1010" as="targetPoint" />
            <Array as="points">
              <mxPoint x="1460" y="1010" />
            </Array>
          </mxGeometry>
        </mxCell>
        <mxCell id="opSj3FVJMWo2EWqM532I-128" value="Memantau Status&lt;br&gt;Laundry" style="edgeLabel;html=1;align=center;verticalAlign=middle;resizable=0;points=[];" parent="opSj3FVJMWo2EWqM532I-127" vertex="1" connectable="0">
          <mxGeometry x="0.3921" y="-2" relative="1" as="geometry">
            <mxPoint x="11" y="2" as="offset" />
          </mxGeometry>
        </mxCell>
        <mxCell id="opSj3FVJMWo2EWqM532I-129" value="konsumen" style="rounded=1;whiteSpace=wrap;html=1;" parent="WIyWlLk6GJQsqaUBKTNV-1" vertex="1">
          <mxGeometry x="1390" y="920" width="90" height="50" as="geometry" />
        </mxCell>
        <mxCell id="opSj3FVJMWo2EWqM532I-130" value="" style="endArrow=classic;html=1;rounded=1;entryX=1;entryY=0;entryDx=0;entryDy=0;" parent="WIyWlLk6GJQsqaUBKTNV-1" target="opSj3FVJMWo2EWqM532I-150" edge="1">
          <mxGeometry width="50" height="50" relative="1" as="geometry">
            <mxPoint x="1350" y="1020" as="sourcePoint" />
            <mxPoint x="1110" y="1390" as="targetPoint" />
            <Array as="points">
              <mxPoint x="1380" y="1020" />
              <mxPoint x="1380" y="1362" />
            </Array>
          </mxGeometry>
        </mxCell>
        <mxCell id="opSj3FVJMWo2EWqM532I-131" value="Data Transaksi Laundry" style="edgeLabel;html=1;align=center;verticalAlign=middle;resizable=0;points=[];" parent="opSj3FVJMWo2EWqM532I-130" vertex="1" connectable="0">
          <mxGeometry x="0.5652" relative="1" as="geometry">
            <mxPoint as="offset" />
          </mxGeometry>
        </mxCell>
        <mxCell id="opSj3FVJMWo2EWqM532I-132" style="edgeStyle=orthogonalEdgeStyle;rounded=1;orthogonalLoop=1;jettySize=auto;html=1;" parent="WIyWlLk6GJQsqaUBKTNV-1" source="opSj3FVJMWo2EWqM532I-136" edge="1">
          <mxGeometry relative="1" as="geometry">
            <mxPoint x="1280" y="1030" as="targetPoint" />
          </mxGeometry>
        </mxCell>
        <mxCell id="opSj3FVJMWo2EWqM532I-133" value="Update Data Status" style="edgeLabel;html=1;align=center;verticalAlign=middle;resizable=0;points=[];" parent="opSj3FVJMWo2EWqM532I-132" vertex="1" connectable="0">
          <mxGeometry x="-0.5226" y="3" relative="1" as="geometry">
            <mxPoint as="offset" />
          </mxGeometry>
        </mxCell>
        <mxCell id="opSj3FVJMWo2EWqM532I-134" style="edgeStyle=orthogonalEdgeStyle;rounded=1;orthogonalLoop=1;jettySize=auto;html=1;entryX=0.25;entryY=1;entryDx=0;entryDy=0;" parent="WIyWlLk6GJQsqaUBKTNV-1" source="opSj3FVJMWo2EWqM532I-136" target="opSj3FVJMWo2EWqM532I-102" edge="1">
          <mxGeometry relative="1" as="geometry">
            <Array as="points">
              <mxPoint x="792" y="1180" />
            </Array>
          </mxGeometry>
        </mxCell>
        <mxCell id="opSj3FVJMWo2EWqM532I-135" value="Data Status Pesanan" style="edgeLabel;html=1;align=center;verticalAlign=middle;resizable=0;points=[];" parent="opSj3FVJMWo2EWqM532I-134" vertex="1" connectable="0">
          <mxGeometry x="-0.5959" y="2" relative="1" as="geometry">
            <mxPoint x="-37" as="offset" />
          </mxGeometry>
        </mxCell>
        <mxCell id="opSj3FVJMWo2EWqM532I-136" value="5&lt;br&gt;Perubahan Status" style="ellipse;whiteSpace=wrap;html=1;aspect=fixed;" parent="WIyWlLk6GJQsqaUBKTNV-1" vertex="1">
          <mxGeometry x="1030" y="1130" width="80" height="80" as="geometry" />
        </mxCell>
        <mxCell id="opSj3FVJMWo2EWqM532I-137" style="edgeStyle=orthogonalEdgeStyle;rounded=1;orthogonalLoop=1;jettySize=auto;html=1;entryX=0.556;entryY=1;entryDx=0;entryDy=0;entryPerimeter=0;" parent="WIyWlLk6GJQsqaUBKTNV-1" source="opSj3FVJMWo2EWqM532I-143" target="opSj3FVJMWo2EWqM532I-102" edge="1">
          <mxGeometry relative="1" as="geometry">
            <Array as="points">
              <mxPoint x="820" y="1270" />
            </Array>
          </mxGeometry>
        </mxCell>
        <mxCell id="opSj3FVJMWo2EWqM532I-138" value="Data Pengambilan Laundry" style="edgeLabel;html=1;align=center;verticalAlign=middle;resizable=0;points=[];" parent="opSj3FVJMWo2EWqM532I-137" vertex="1" connectable="0">
          <mxGeometry x="-0.5492" y="2" relative="1" as="geometry">
            <mxPoint y="-2" as="offset" />
          </mxGeometry>
        </mxCell>
        <mxCell id="opSj3FVJMWo2EWqM532I-139" style="edgeStyle=orthogonalEdgeStyle;rounded=1;orthogonalLoop=1;jettySize=auto;html=1;" parent="WIyWlLk6GJQsqaUBKTNV-1" source="opSj3FVJMWo2EWqM532I-143" edge="1">
          <mxGeometry relative="1" as="geometry">
            <mxPoint x="1310" y="1027.7931371228449" as="targetPoint" />
          </mxGeometry>
        </mxCell>
        <mxCell id="opSj3FVJMWo2EWqM532I-140" value="Update Data Status Pengambilan" style="edgeLabel;html=1;align=center;verticalAlign=middle;resizable=0;points=[];" parent="opSj3FVJMWo2EWqM532I-139" vertex="1" connectable="0">
          <mxGeometry x="-0.6447" y="2" relative="1" as="geometry">
            <mxPoint x="20" y="2" as="offset" />
          </mxGeometry>
        </mxCell>
        <mxCell id="opSj3FVJMWo2EWqM532I-141" style="edgeStyle=orthogonalEdgeStyle;rounded=1;orthogonalLoop=1;jettySize=auto;html=1;entryX=0;entryY=0.5;entryDx=0;entryDy=0;" parent="WIyWlLk6GJQsqaUBKTNV-1" source="opSj3FVJMWo2EWqM532I-143" target="opSj3FVJMWo2EWqM532I-91" edge="1">
          <mxGeometry relative="1" as="geometry">
            <Array as="points">
              <mxPoint x="700" y="1300" />
              <mxPoint x="700" y="655" />
            </Array>
          </mxGeometry>
        </mxCell>
        <mxCell id="opSj3FVJMWo2EWqM532I-142" value="Informasi Data Laundry Keluar" style="edgeLabel;html=1;align=center;verticalAlign=middle;resizable=0;points=[];" parent="opSj3FVJMWo2EWqM532I-141" vertex="1" connectable="0">
          <mxGeometry x="-0.5418" relative="1" as="geometry">
            <mxPoint x="19" as="offset" />
          </mxGeometry>
        </mxCell>
        <mxCell id="opSj3FVJMWo2EWqM532I-143" value="6&lt;br&gt;Pengambilan Laundry" style="ellipse;whiteSpace=wrap;html=1;aspect=fixed;" parent="WIyWlLk6GJQsqaUBKTNV-1" vertex="1">
          <mxGeometry x="1030" y="1240" width="80" height="80" as="geometry" />
        </mxCell>
        <mxCell id="opSj3FVJMWo2EWqM532I-144" style="edgeStyle=orthogonalEdgeStyle;rounded=0;orthogonalLoop=1;jettySize=auto;html=1;entryX=1;entryY=0.25;entryDx=0;entryDy=0;" parent="WIyWlLk6GJQsqaUBKTNV-1" source="opSj3FVJMWo2EWqM532I-150" target="opSj3FVJMWo2EWqM532I-153" edge="1">
          <mxGeometry relative="1" as="geometry">
            <Array as="points">
              <mxPoint x="955" y="1378" />
            </Array>
          </mxGeometry>
        </mxCell>
        <mxCell id="opSj3FVJMWo2EWqM532I-145" value="Laporan Karyawan" style="edgeLabel;html=1;align=center;verticalAlign=middle;resizable=0;points=[];" parent="opSj3FVJMWo2EWqM532I-144" vertex="1" connectable="0">
          <mxGeometry x="0.1131" y="-2" relative="1" as="geometry">
            <mxPoint x="13" as="offset" />
          </mxGeometry>
        </mxCell>
        <mxCell id="opSj3FVJMWo2EWqM532I-146" style="edgeStyle=orthogonalEdgeStyle;rounded=0;orthogonalLoop=1;jettySize=auto;html=1;entryX=1;entryY=0.75;entryDx=0;entryDy=0;" parent="WIyWlLk6GJQsqaUBKTNV-1" source="opSj3FVJMWo2EWqM532I-150" target="opSj3FVJMWo2EWqM532I-153" edge="1">
          <mxGeometry relative="1" as="geometry">
            <Array as="points">
              <mxPoint x="955" y="1403" />
            </Array>
          </mxGeometry>
        </mxCell>
        <mxCell id="opSj3FVJMWo2EWqM532I-147" value="Laporan Transaksi" style="edgeLabel;html=1;align=center;verticalAlign=middle;resizable=0;points=[];" parent="opSj3FVJMWo2EWqM532I-146" vertex="1" connectable="0">
          <mxGeometry x="0.0869" y="-1" relative="1" as="geometry">
            <mxPoint as="offset" />
          </mxGeometry>
        </mxCell>
        <mxCell id="opSj3FVJMWo2EWqM532I-148" style="edgeStyle=orthogonalEdgeStyle;rounded=1;orthogonalLoop=1;jettySize=auto;html=1;entryX=0.5;entryY=1;entryDx=0;entryDy=0;" parent="WIyWlLk6GJQsqaUBKTNV-1" source="opSj3FVJMWo2EWqM532I-150" target="opSj3FVJMWo2EWqM532I-153" edge="1">
          <mxGeometry relative="1" as="geometry">
            <Array as="points">
              <mxPoint x="1070" y="1450" />
              <mxPoint x="835" y="1450" />
            </Array>
          </mxGeometry>
        </mxCell>
        <mxCell id="opSj3FVJMWo2EWqM532I-149" value="Laporan Penghasilan" style="edgeLabel;html=1;align=center;verticalAlign=middle;resizable=0;points=[];" parent="opSj3FVJMWo2EWqM532I-148" vertex="1" connectable="0">
          <mxGeometry x="0.0524" y="-1" relative="1" as="geometry">
            <mxPoint as="offset" />
          </mxGeometry>
        </mxCell>
        <mxCell id="opSj3FVJMWo2EWqM532I-150" value="7&lt;br&gt;Laporan" style="ellipse;whiteSpace=wrap;html=1;aspect=fixed;" parent="WIyWlLk6GJQsqaUBKTNV-1" vertex="1">
          <mxGeometry x="1030" y="1350" width="80" height="80" as="geometry" />
        </mxCell>
        <mxCell id="opSj3FVJMWo2EWqM532I-151" style="edgeStyle=orthogonalEdgeStyle;rounded=1;orthogonalLoop=1;jettySize=auto;html=1;endArrow=classic;endFill=1;startArrow=none;startFill=0;" parent="WIyWlLk6GJQsqaUBKTNV-1" source="opSj3FVJMWo2EWqM532I-153" target="opSj3FVJMWo2EWqM532I-79" edge="1">
          <mxGeometry relative="1" as="geometry">
            <Array as="points">
              <mxPoint x="835" y="1330" />
              <mxPoint x="1510" y="1330" />
              <mxPoint x="1510" y="680" />
              <mxPoint x="1070" y="680" />
            </Array>
          </mxGeometry>
        </mxCell>
        <mxCell id="opSj3FVJMWo2EWqM532I-152" value="Input Data Admin" style="edgeLabel;html=1;align=center;verticalAlign=middle;resizable=0;points=[];" parent="opSj3FVJMWo2EWqM532I-151" vertex="1" connectable="0">
          <mxGeometry x="-0.8392" y="-1" relative="1" as="geometry">
            <mxPoint x="353" y="-1" as="offset" />
          </mxGeometry>
        </mxCell>
        <mxCell id="opSj3FVJMWo2EWqM532I-153" value="Pimpinan" style="rounded=1;whiteSpace=wrap;html=1;" parent="WIyWlLk6GJQsqaUBKTNV-1" vertex="1">
          <mxGeometry x="790" y="1365" width="90" height="50" as="geometry" />
        </mxCell>
        <mxCell id="opSj3FVJMWo2EWqM532I-157" value="" style="endArrow=classic;html=1;rounded=0;entryX=0.375;entryY=0;entryDx=0;entryDy=0;entryPerimeter=0;" parent="WIyWlLk6GJQsqaUBKTNV-1" target="opSj3FVJMWo2EWqM532I-119" edge="1">
          <mxGeometry width="50" height="50" relative="1" as="geometry">
            <mxPoint x="1250" y="900" as="sourcePoint" />
            <mxPoint x="1070" y="950" as="targetPoint" />
            <Array as="points">
              <mxPoint x="1250" y="940" />
              <mxPoint x="1060" y="940" />
            </Array>
          </mxGeometry>
        </mxCell>
      </root>
    </mxGraphModel>
  </diagram>
</mxfile>
